<?xml version="1.0" encoding="UTF-8" standalone="no"?>
<!-- Created with Inkscape (http://www.inkscape.org/) -->

<svg
   xmlns:rendltx="http://NOTSET"
   xmlns:dc="http://purl.org/dc/elements/1.1/"
   xmlns:cc="http://creativecommons.org/ns#"
   xmlns:rdf="http://www.w3.org/1999/02/22-rdf-syntax-ns#"
   xmlns:svg="http://www.w3.org/2000/svg"
   xmlns="http://www.w3.org/2000/svg"
   xmlns:xlink="http://www.w3.org/1999/xlink"
   xmlns:sodipodi="http://sodipodi.sourceforge.net/DTD/sodipodi-0.dtd"
   xmlns:inkscape="http://www.inkscape.org/namespaces/inkscape"
   width="210mm"
   height="297mm"
   viewBox="0 0 210 297"
   version="1.1"
   id="svg8"
   inkscape:version="0.92.3 (2405546, 2018-03-11)"
   sodipodi:docname="path.svg">
  <sodipodi:namedview
     id="base"
     pagecolor="#ffffff"
     bordercolor="#666666"
     borderopacity="1.0"
     inkscape:pageopacity="0.0"
     inkscape:pageshadow="2"
     inkscape:zoom="2.8"
     inkscape:cx="290.48146"
     inkscape:cy="896.51011"
     inkscape:document-units="mm"
     inkscape:current-layer="ltx-render-layer"
     showgrid="false"
     inkscape:window-width="2160"
     inkscape:window-height="1346"
     inkscape:window-x="-11"
     inkscape:window-y="49"
     inkscape:window-maximized="1" />
  <defs
     id="defs2">
    <marker
       inkscape:isstock="true"
       style="overflow:visible;"
       id="marker1981"
       refX="0.0"
       refY="0.0"
       orient="auto"
       inkscape:stockid="Arrow2Mend">
      <path
         transform="scale(0.6) rotate(180) translate(0,0)"
         d="M 8.7185878,4.0337352 L -2.2072895,0.016013256 L 8.7185884,-4.0017078 C 6.9730900,-1.6296469 6.9831476,1.6157441 8.7185878,4.0337352 z "
         style="fill-rule:evenodd;stroke-width:0.625;stroke-linejoin:round;stroke:#000000;stroke-opacity:1;fill:#000000;fill-opacity:1"
         id="path1979" />
    </marker>
    <marker
       inkscape:collect="always"
       inkscape:stockid="Arrow2Mend"
       orient="auto"
       refY="0.0"
       refX="0.0"
       id="marker1945"
       style="overflow:visible;"
       inkscape:isstock="true">
      <path
         id="path1943"
         style="fill-rule:evenodd;stroke-width:0.625;stroke-linejoin:round;stroke:#000000;stroke-opacity:1;fill:#000000;fill-opacity:1"
         d="M 8.7185878,4.0337352 L -2.2072895,0.016013256 L 8.7185884,-4.0017078 C 6.9730900,-1.6296469 6.9831476,1.6157441 8.7185878,4.0337352 z "
         transform="scale(0.6) rotate(180) translate(0,0)" />
    </marker>
    <marker
       inkscape:collect="always"
       inkscape:isstock="true"
       style="overflow:visible;"
       id="marker1448"
       refX="0.0"
       refY="0.0"
       orient="auto"
       inkscape:stockid="Arrow2Mend">
      <path
         transform="scale(0.6) rotate(180) translate(0,0)"
         d="M 8.7185878,4.0337352 L -2.2072895,0.016013256 L 8.7185884,-4.0017078 C 6.9730900,-1.6296469 6.9831476,1.6157441 8.7185878,4.0337352 z "
         style="fill-rule:evenodd;stroke-width:0.625;stroke-linejoin:round;stroke:#ff0c0c;stroke-opacity:1;fill:#ff0c0c;fill-opacity:1"
         id="path1446" />
    </marker>
    <marker
       inkscape:stockid="Arrow1Mend"
       orient="auto"
       refY="0.0"
       refX="0.0"
       id="Arrow1Mend"
       style="overflow:visible;"
       inkscape:isstock="true">
      <path
         id="path851"
         d="M 0.0,0.0 L 5.0,-5.0 L -12.5,0.0 L 5.0,5.0 L 0.0,0.0 z "
         style="fill-rule:evenodd;stroke:#ff0c0c;stroke-width:1pt;stroke-opacity:1;fill:#ff0c0c;fill-opacity:1"
         transform="scale(0.4) rotate(180) translate(10,0)" />
    </marker>
    <marker
       inkscape:stockid="Arrow2Mend"
       orient="auto"
       refY="0.0"
       refX="0.0"
       id="Arrow2Mend"
       style="overflow:visible;"
       inkscape:isstock="true"
       inkscape:collect="always">
      <path
         id="path869"
         style="fill-rule:evenodd;stroke-width:0.625;stroke-linejoin:round;stroke:#ff0c0c;stroke-opacity:1;fill:#ff0c0c;fill-opacity:1"
         d="M 8.7185878,4.0337352 L -2.2072895,0.016013256 L 8.7185884,-4.0017078 C 6.9730900,-1.6296469 6.9831476,1.6157441 8.7185878,4.0337352 z "
         transform="scale(0.6) rotate(180) translate(0,0)" />
    </marker>
    <marker
       inkscape:stockid="Arrow2Lend"
       orient="auto"
       refY="0.0"
       refX="0.0"
       id="Arrow2Lend"
       style="overflow:visible;"
       inkscape:isstock="true">
      <path
         id="path863"
         style="fill-rule:evenodd;stroke-width:0.625;stroke-linejoin:round;stroke:#ff0c0c;stroke-opacity:1;fill:#ff0c0c;fill-opacity:1"
         d="M 8.7185878,4.0337352 L -2.2072895,0.016013256 L 8.7185884,-4.0017078 C 6.9730900,-1.6296469 6.9831476,1.6157441 8.7185878,4.0337352 z "
         transform="scale(1.1) rotate(180) translate(1,0)" />
    </marker>
    <marker
       inkscape:stockid="Arrow1Lstart"
       orient="auto"
       refY="0.0"
       refX="0.0"
       id="marker1126"
       style="overflow:visible"
       inkscape:isstock="true">
      <path
         id="path1124"
         d="M 0.0,0.0 L 5.0,-5.0 L -12.5,0.0 L 5.0,5.0 L 0.0,0.0 z "
         style="fill-rule:evenodd;stroke:#ff0c0c;stroke-width:1pt;stroke-opacity:1;fill:#ff0c0c;fill-opacity:1"
         transform="scale(0.8) translate(12.5,0)" />
    </marker>
    <marker
       inkscape:stockid="Arrow1Lstart"
       orient="auto"
       refY="0.0"
       refX="0.0"
       id="Arrow1Lstart"
       style="overflow:visible"
       inkscape:isstock="true">
      <path
         id="path842"
         d="M 0.0,0.0 L 5.0,-5.0 L -12.5,0.0 L 5.0,5.0 L 0.0,0.0 z "
         style="fill-rule:evenodd;stroke:#ff0c0c;stroke-width:1pt;stroke-opacity:1;fill:#ff0c0c;fill-opacity:1"
         transform="scale(0.8) translate(12.5,0)" />
    </marker>
  </defs>
  <metadata
     id="metadata5">
    <rdf:RDF>
      <cc:Work
         rdf:about="">
        <dc:format>image/svg+xml</dc:format>
        <dc:type
           rdf:resource="http://purl.org/dc/dcmitype/StillImage" />
        <dc:title></dc:title>
      </cc:Work>
    </rdf:RDF>
  </metadata>
  <g
     inkscape:label="Layer 1"
     inkscape:groupmode="layer"
     id="layer1">
    <path
       style="fill:none;stroke:#000000;stroke-width:0.265;stroke-linecap:butt;stroke-linejoin:miter;stroke-opacity:1;stroke-miterlimit:4;stroke-dasharray:none;marker-end:url(#marker1981)"
       d="M 24.588796,53.918363 H 132.16478"
       id="path815"
       inkscape:connector-curvature="0" />
    <path
       style="fill:none;stroke:#ff0c0c;stroke-width:0.26458332px;stroke-linecap:butt;stroke-linejoin:miter;stroke-opacity:1"
       d="M 37.429779,67.60041 113.6121,40.071442"
       id="path817"
       inkscape:connector-curvature="0"
       sodipodi:nodetypes="cc" />
    <path
       style="fill:none;stroke:#ff0c0c;stroke-width:0.31596121;stroke-linecap:round;stroke-miterlimit:4;stroke-dasharray:none;stroke-dashoffset:0;stroke-opacity:1;marker-end:url(#marker1448)"
       id="path825"
       sodipodi:type="arc"
       sodipodi:cx="75.453491"
       sodipodi:cy="53.819565"
       sodipodi:rx="40.559711"
       sodipodi:ry="40.559711"
       sodipodi:start="5.937374"
       sodipodi:end="6.2731945"
       sodipodi:open="true"
       d="m 113.6121,40.071442 a 40.559711,40.559711 0 0 1 2.39908,13.342905" />
    <path
       style="fill:none;stroke:#ff0c0c;stroke-width:0.31600001;stroke-linecap:round;stroke-miterlimit:4;stroke-dasharray:none;stroke-dashoffset:0;stroke-opacity:1;marker-end:url(#Arrow2Mend)"
       id="path825-4"
       sodipodi:type="arc"
       sodipodi:cx="75.545982"
       sodipodi:cy="53.735146"
       sodipodi:rx="40.559715"
       sodipodi:ry="40.559715"
       sodipodi:start="2.7927098"
       sodipodi:end="3.1251416"
       sodipodi:open="true"
       d="M 37.429779,67.60041 A 40.559715,40.559715 0 0 1 34.991755,54.402366" />
    <path
       style="fill:none;stroke:#ff0c0c;stroke-width:0.26458332px;stroke-linecap:butt;stroke-linejoin:miter;stroke-opacity:1"
       d="M 115.99497,53.834842 H 34.98642"
       id="path1498"
       inkscape:connector-curvature="0" />
    <path
       style="fill:none;stroke:#000000;stroke-width:0.21457662;stroke-linecap:butt;stroke-linejoin:miter;stroke-miterlimit:4;stroke-dasharray:none;stroke-opacity:1;marker-end:url(#marker1945)"
       d="M 75.53705,74.401929 V 34.18534"
       id="path1500"
       inkscape:connector-curvature="0" />
  </g>
  <g
     inkscape:label="Rendered Latex"
     inkscape:groupmode="layer"
     id="ltx-render-layer"
     rendltx:preamble="C:\Users\franc\Desktop\preamble.tex"
     rendltx:packages="amsmath,amssymb"
     rendltx:scale="1.0"
     rendltx:depth="0"
     rendltx:fontsize="10"
     rendltx:newline="False"
     rendltx:math="False">
    <g
       transform="matrix(0.352778,0,0,0.352778,53.779783,52.109738)"
       id="lx-text1505">
      <defs
         id="defs1594">
        <g
           id="g1592">
          <symbol
             style="overflow:visible"
             overflow="visible"
             id="lx-text1505-glyph0-0">
            <path
               inkscape:connector-curvature="0"
               style="stroke:none"
               d=""
               id="path1574" />
          </symbol>
          <symbol
             style="overflow:visible"
             overflow="visible"
             id="lx-text1505-glyph0-1">
            <path
               inkscape:connector-curvature="0"
               style="stroke:none"
               d="m 4.296875,-5.875 v -0.3125 h -3.59375 v 0.3125 z m 0,0"
               id="path1577" />
          </symbol>
          <symbol
             style="overflow:visible"
             overflow="visible"
             id="lx-text1505-glyph1-0">
            <path
               inkscape:connector-curvature="0"
               style="stroke:none"
               d=""
               id="path1580" />
          </symbol>
          <symbol
             style="overflow:visible"
             overflow="visible"
             id="lx-text1505-glyph1-1">
            <path
               inkscape:connector-curvature="0"
               style="stroke:none"
               d="m 5.40625,-4.203125 c 0,-0.09375 -0.109375,-0.09375 -0.109375,-0.09375 -0.03125,0 -0.09375,0 -0.125,0.0625 C 4.65625,-3.28125 4.25,-2.28125 3.859375,-1.28125 3.84375,-1.578125 3.84375,-2.34375 3.453125,-3.3125 3.203125,-3.921875 2.8125,-4.40625 2.125,-4.40625 c -1.25,0 -1.953125,1.515625 -1.953125,1.828125 0,0.09375 0.09375,0.09375 0.203125,0.09375 L 0.40625,-2.53125 C 0.796875,-3.671875 1.890625,-3.6875 2,-3.6875 c 1.5,0 1.609375,1.75 1.609375,2.53125 0,0.609375 -0.046875,0.78125 -0.125,0.984375 -0.21875,0.71875 -0.515625,1.875 -0.515625,2.140625 0,0.109375 0.046875,0.171875 0.125,0.171875 0.140625,0 0.21875,-0.21875 0.328125,-0.59375 C 3.65625,0.703125 3.75,0.140625 3.78125,-0.171875 c 0.03125,-0.125 0.046875,-0.25 0.09375,-0.390625 0.3125,-0.984375 0.953125,-2.46875 1.34375,-3.25 0.078125,-0.125 0.1875,-0.34375 0.1875,-0.390625 z m 0,0"
               id="path1583" />
          </symbol>
          <symbol
             style="overflow:visible"
             overflow="visible"
             id="lx-text1505-glyph2-0">
            <path
               inkscape:connector-curvature="0"
               style="stroke:none"
               d=""
               id="path1586" />
          </symbol>
          <symbol
             style="overflow:visible"
             overflow="visible"
             id="lx-text1505-glyph2-1">
            <path
               inkscape:connector-curvature="0"
               style="stroke:none"
               d="M 4.984375,-3.796875 C 4.984375,-3.5 4.859375,-3.0625 4.53125,-2.8125 4.25,-2.59375 3.8125,-2.484375 3.328125,-2.484375 H 2.4375 l 0.4375,-1.78125 c 0.046875,-0.203125 0.0625,-0.21875 0.21875,-0.25 h 0.453125 c 0.640625,0 1.4375,0 1.4375,0.71875 z m 0.9375,3.125 c 0,-0.015625 -0.015625,-0.09375 -0.125,-0.09375 -0.09375,0 -0.109375,0.046875 -0.125,0.125 C 5.578125,-0.34375 5.3125,-0.0625 5.03125,-0.0625 c -0.1875,0 -0.328125,-0.0625 -0.328125,-0.453125 0,-0.171875 0.046875,-0.53125 0.078125,-0.71875 0.03125,-0.1875 0.03125,-0.25 0.03125,-0.328125 0,-0.078125 0,-0.3125 -0.203125,-0.515625 -0.125,-0.140625 -0.3125,-0.234375 -0.46875,-0.296875 0.828125,-0.1875 1.5625,-0.6875 1.5625,-1.3125 0,-0.59375 -0.703125,-1.078125 -1.71875,-1.078125 H 1.84375 c -0.125,0 -0.21875,0 -0.21875,0.15625 0,0.09375 0.078125,0.09375 0.21875,0.09375 0,0 0.140625,0 0.265625,0.015625 0.15625,0.015625 0.15625,0.03125 0.15625,0.109375 0,0 0,0.046875 -0.015625,0.140625 L 1.3125,-0.546875 C 1.265625,-0.3125 1.25,-0.25 0.703125,-0.25 0.578125,-0.25 0.5,-0.25 0.5,-0.109375 0.5,-0.03125 0.546875,0 0.609375,0 0.734375,0 0.90625,-0.015625 1.03125,-0.015625 L 1.5,-0.03125 1.9375,-0.015625 C 2.09375,-0.015625 2.265625,0 2.40625,0 2.453125,0 2.5625,0 2.5625,-0.140625 2.5625,-0.25 2.484375,-0.25 2.328125,-0.25 2.21875,-0.25 2.1875,-0.25 2.0625,-0.265625 1.90625,-0.28125 1.90625,-0.296875 1.90625,-0.375 c 0,0 0,-0.046875 0.03125,-0.140625 L 2.375,-2.28125 h 0.953125 c 0.59375,0 0.859375,0.296875 0.859375,0.625 0,0.09375 -0.0625,0.328125 -0.109375,0.484375 C 4,-0.84375 3.96875,-0.75 3.96875,-0.625 c 0,0.546875 0.515625,0.765625 1.03125,0.765625 0.640625,0 0.921875,-0.6875 0.921875,-0.8125 z m 0,0"
               id="path1589" />
          </symbol>
        </g>
      </defs>
      <g
         id="lx-text1505-surface1">
        <g
           style="fill:#000000;fill-opacity:1"
           id="g1598">
          <use
             height="100%"
             width="100%"
             xlink:href="#lx-text1505-glyph0-1"
             x="0.36500001"
             y="0"
             id="use1596" />
        </g>
        <g
           style="fill:#000000;fill-opacity:1"
           id="g1602">
          <use
             height="100%"
             width="100%"
             xlink:href="#lx-text1505-glyph1-1"
             x="0"
             y="0"
             id="use1600" />
        </g>
        <g
           style="fill:#000000;fill-opacity:1"
           id="g1606">
          <use
             height="100%"
             width="100%"
             xlink:href="#lx-text1505-glyph2-1"
             x="5.158"
             y="1.495"
             id="use1604" />
        </g>
      </g>
    </g>
    <g
       transform="matrix(0.352778,0,0,0.352778,31.361094,52.895337)"
       id="lx-text1509">
      <defs
         id="defs1624">
        <g
           id="g1622">
          <symbol
             style="overflow:visible"
             overflow="visible"
             id="lx-text1509-glyph0-0">
            <path
               inkscape:connector-curvature="0"
               style="stroke:none"
               d=""
               id="path1610" />
          </symbol>
          <symbol
             style="overflow:visible"
             overflow="visible"
             id="lx-text1509-glyph0-1">
            <path
               inkscape:connector-curvature="0"
               style="stroke:none"
               d="m 6.921875,-2.5 c 0,-0.1875 -0.1875,-0.1875 -0.328125,-0.1875 h -5.4375 c -0.140625,0 -0.328125,0 -0.328125,0.1875 0,0.203125 0.1875,0.203125 0.328125,0.203125 h 5.4375 c 0.140625,0 0.328125,0 0.328125,-0.203125 z m 0,0"
               id="path1613" />
          </symbol>
          <symbol
             style="overflow:visible"
             overflow="visible"
             id="lx-text1509-glyph1-0">
            <path
               inkscape:connector-curvature="0"
               style="stroke:none"
               d=""
               id="path1616" />
          </symbol>
          <symbol
             style="overflow:visible"
             overflow="visible"
             id="lx-text1509-glyph1-1">
            <path
               inkscape:connector-curvature="0"
               style="stroke:none"
               d="m 6.4375,-5.515625 c 0,0.34375 -0.15625,1.03125 -0.546875,1.421875 -0.265625,0.25 -0.78125,0.578125 -1.6875,0.578125 H 3.09375 L 3.734375,-6.125 c 0.0625,-0.234375 0.09375,-0.328125 0.28125,-0.359375 C 4.109375,-6.5 4.421875,-6.5 4.625,-6.5 c 0.703125,0 1.8125,0 1.8125,0.984375 z m 1.09375,4.59375 c 0,-0.125 -0.125,-0.125 -0.125,-0.125 -0.09375,0 -0.109375,0.0625 -0.125,0.140625 C 7.03125,-0.171875 6.59375,0 6.375,0 6.046875,0 5.96875,-0.21875 5.96875,-0.609375 c 0,-0.3125 0.0625,-0.8125 0.109375,-1.140625 0.015625,-0.140625 0.03125,-0.328125 0.03125,-0.46875 0,-0.765625 -0.671875,-1.078125 -0.9375,-1.171875 1.015625,-0.21875 2.1875,-0.921875 2.1875,-1.921875 0,-0.859375 -0.890625,-1.5 -2.203125,-1.5 H 2.328125 c -0.203125,0 -0.296875,0 -0.296875,0.203125 C 2.03125,-6.5 2.125,-6.5 2.3125,-6.5 c 0,0 0.203125,0 0.375,0.015625 0.1875,0.03125 0.265625,0.03125 0.265625,0.171875 0,0.03125 0,0.0625 -0.03125,0.1875 l -1.34375,5.34375 C 1.484375,-0.390625 1.46875,-0.3125 0.671875,-0.3125 0.5,-0.3125 0.40625,-0.3125 0.40625,-0.109375 0.40625,0 0.546875,0 0.546875,0 l 1.25,-0.03125 L 3.078125,0 c 0.078125,0 0.1875,0 0.1875,-0.203125 0,-0.109375 -0.078125,-0.109375 -0.28125,-0.109375 -0.359375,0 -0.640625,0 -0.640625,-0.171875 0,-0.0625 0.015625,-0.109375 0.03125,-0.171875 l 0.65625,-2.640625 h 1.1875 c 0.90625,0 1.078125,0.5625 1.078125,0.90625 0,0.140625 -0.078125,0.453125 -0.140625,0.6875 C 5.09375,-1.421875 5,-1.0625 5,-0.859375 5,0.21875 6.203125,0.21875 6.328125,0.21875 c 0.84375,0 1.203125,-1 1.203125,-1.140625 z m 0,0"
               id="path1619" />
          </symbol>
        </g>
      </defs>
      <g
         id="lx-text1509-surface1">
        <g
           style="fill:#000000;fill-opacity:1"
           id="g1628">
          <use
             height="100%"
             width="100%"
             xlink:href="#lx-text1509-glyph0-1"
             x="0"
             y="0"
             id="use1626" />
        </g>
        <g
           style="fill:#000000;fill-opacity:1"
           id="g1632">
          <use
             height="100%"
             width="100%"
             xlink:href="#lx-text1509-glyph1-1"
             x="7.7490001"
             y="0"
             id="use1630" />
        </g>
      </g>
    </g>
    <g
       transform="matrix(0.352778,0,0,0.352778,114.49093,57.934598)"
       id="lx-text1513">
      <defs
         id="defs1644">
        <g
           id="g1642">
          <symbol
             style="overflow:visible"
             overflow="visible"
             id="lx-text1513-glyph0-0">
            <path
               inkscape:connector-curvature="0"
               style="stroke:none"
               d=""
               id="path1636" />
          </symbol>
          <symbol
             style="overflow:visible"
             overflow="visible"
             id="lx-text1513-glyph0-1">
            <path
               inkscape:connector-curvature="0"
               style="stroke:none"
               d="m 6.4375,-5.515625 c 0,0.34375 -0.15625,1.03125 -0.546875,1.421875 -0.265625,0.25 -0.78125,0.578125 -1.6875,0.578125 H 3.09375 L 3.734375,-6.125 c 0.0625,-0.234375 0.09375,-0.328125 0.28125,-0.359375 C 4.109375,-6.5 4.421875,-6.5 4.625,-6.5 c 0.703125,0 1.8125,0 1.8125,0.984375 z m 1.09375,4.59375 c 0,-0.125 -0.125,-0.125 -0.125,-0.125 -0.09375,0 -0.109375,0.0625 -0.125,0.140625 C 7.03125,-0.171875 6.59375,0 6.375,0 6.046875,0 5.96875,-0.21875 5.96875,-0.609375 c 0,-0.3125 0.0625,-0.8125 0.109375,-1.140625 0.015625,-0.140625 0.03125,-0.328125 0.03125,-0.46875 0,-0.765625 -0.671875,-1.078125 -0.9375,-1.171875 1.015625,-0.21875 2.1875,-0.921875 2.1875,-1.921875 0,-0.859375 -0.890625,-1.5 -2.203125,-1.5 H 2.328125 c -0.203125,0 -0.296875,0 -0.296875,0.203125 C 2.03125,-6.5 2.125,-6.5 2.3125,-6.5 c 0,0 0.203125,0 0.375,0.015625 0.1875,0.03125 0.265625,0.03125 0.265625,0.171875 0,0.03125 0,0.0625 -0.03125,0.1875 l -1.34375,5.34375 C 1.484375,-0.390625 1.46875,-0.3125 0.671875,-0.3125 0.5,-0.3125 0.40625,-0.3125 0.40625,-0.109375 0.40625,0 0.546875,0 0.546875,0 l 1.25,-0.03125 L 3.078125,0 c 0.078125,0 0.1875,0 0.1875,-0.203125 0,-0.109375 -0.078125,-0.109375 -0.28125,-0.109375 -0.359375,0 -0.640625,0 -0.640625,-0.171875 0,-0.0625 0.015625,-0.109375 0.03125,-0.171875 l 0.65625,-2.640625 h 1.1875 c 0.90625,0 1.078125,0.5625 1.078125,0.90625 0,0.140625 -0.078125,0.453125 -0.140625,0.6875 C 5.09375,-1.421875 5,-1.0625 5,-0.859375 5,0.21875 6.203125,0.21875 6.328125,0.21875 c 0.84375,0 1.203125,-1 1.203125,-1.140625 z m 0,0"
               id="path1639" />
          </symbol>
        </g>
      </defs>
      <g
         id="lx-text1513-surface1">
        <g
           style="fill:#000000;fill-opacity:1"
           id="g1648">
          <use
             height="100%"
             width="100%"
             xlink:href="#lx-text1513-glyph0-1"
             x="0"
             y="0"
             id="use1646" />
        </g>
      </g>
    </g>
    <g
       transform="matrix(0.352778,0,0,0.352778,116.3836,46.721557)"
       id="lx-text1517">
      <defs
         id="defs1666">
        <g
           id="g1664">
          <symbol
             style="overflow:visible"
             overflow="visible"
             id="lx-text1517-glyph0-0">
            <path
               inkscape:connector-curvature="0"
               style="stroke:none"
               d=""
               id="path1652" />
          </symbol>
          <symbol
             style="overflow:visible"
             overflow="visible"
             id="lx-text1517-glyph0-1">
            <path
               inkscape:connector-curvature="0"
               style="stroke:none"
               d="m 5.40625,-4.203125 c 0,-0.09375 -0.109375,-0.09375 -0.109375,-0.09375 -0.03125,0 -0.09375,0 -0.125,0.0625 C 4.65625,-3.28125 4.25,-2.28125 3.859375,-1.28125 3.84375,-1.578125 3.84375,-2.34375 3.453125,-3.3125 3.203125,-3.921875 2.8125,-4.40625 2.125,-4.40625 c -1.25,0 -1.953125,1.515625 -1.953125,1.828125 0,0.09375 0.09375,0.09375 0.203125,0.09375 L 0.40625,-2.53125 C 0.796875,-3.671875 1.890625,-3.6875 2,-3.6875 c 1.5,0 1.609375,1.75 1.609375,2.53125 0,0.609375 -0.046875,0.78125 -0.125,0.984375 -0.21875,0.71875 -0.515625,1.875 -0.515625,2.140625 0,0.109375 0.046875,0.171875 0.125,0.171875 0.140625,0 0.21875,-0.21875 0.328125,-0.59375 C 3.65625,0.703125 3.75,0.140625 3.78125,-0.171875 c 0.03125,-0.125 0.046875,-0.25 0.09375,-0.390625 0.3125,-0.984375 0.953125,-2.46875 1.34375,-3.25 0.078125,-0.125 0.1875,-0.34375 0.1875,-0.390625 z m 0,0"
               id="path1655" />
          </symbol>
          <symbol
             style="overflow:visible"
             overflow="visible"
             id="lx-text1517-glyph1-0">
            <path
               inkscape:connector-curvature="0"
               style="stroke:none"
               d=""
               id="path1658" />
          </symbol>
          <symbol
             style="overflow:visible"
             overflow="visible"
             id="lx-text1517-glyph1-1">
            <path
               inkscape:connector-curvature="0"
               style="stroke:none"
               d="m 5.609375,-1.734375 c 0,-0.1875 -0.15625,-0.1875 -0.25,-0.1875 H 3.21875 V -4.0625 c 0,-0.078125 0,-0.25 -0.15625,-0.25 -0.171875,0 -0.171875,0.15625 -0.171875,0.25 v 2.140625 H 0.75 c -0.09375,0 -0.265625,0 -0.265625,0.171875 0,0.171875 0.15625,0.171875 0.265625,0.171875 H 2.890625 V 0.5625 c 0,0.09375 0,0.265625 0.15625,0.265625 0.171875,0 0.171875,-0.171875 0.171875,-0.265625 v -2.140625 h 2.140625 c 0.09375,0 0.25,0 0.25,-0.15625 z m 0,0"
               id="path1661" />
          </symbol>
        </g>
      </defs>
      <g
         id="lx-text1517-surface1">
        <g
           style="fill:#000000;fill-opacity:1"
           id="g1670">
          <use
             height="100%"
             width="100%"
             xlink:href="#lx-text1517-glyph0-1"
             x="0"
             y="0"
             id="use1668" />
        </g>
        <g
           style="fill:#000000;fill-opacity:1"
           id="g1674">
          <use
             height="100%"
             width="100%"
             xlink:href="#lx-text1517-glyph1-1"
             x="5.158"
             y="1.495"
             id="use1672" />
        </g>
      </g>
    </g>
    <g
       transform="matrix(0.352778,0,0,0.352778,29.777427,61.709473)"
       id="lx-text1521">
      <defs
         id="defs1692">
        <g
           id="g1690">
          <symbol
             style="overflow:visible"
             overflow="visible"
             id="lx-text1521-glyph0-0">
            <path
               inkscape:connector-curvature="0"
               style="stroke:none"
               d=""
               id="path1678" />
          </symbol>
          <symbol
             style="overflow:visible"
             overflow="visible"
             id="lx-text1521-glyph0-1">
            <path
               inkscape:connector-curvature="0"
               style="stroke:none"
               d="m 5.40625,-4.203125 c 0,-0.09375 -0.109375,-0.09375 -0.109375,-0.09375 -0.03125,0 -0.09375,0 -0.125,0.0625 C 4.65625,-3.28125 4.25,-2.28125 3.859375,-1.28125 3.84375,-1.578125 3.84375,-2.34375 3.453125,-3.3125 3.203125,-3.921875 2.8125,-4.40625 2.125,-4.40625 c -1.25,0 -1.953125,1.515625 -1.953125,1.828125 0,0.09375 0.09375,0.09375 0.203125,0.09375 L 0.40625,-2.53125 C 0.796875,-3.671875 1.890625,-3.6875 2,-3.6875 c 1.5,0 1.609375,1.75 1.609375,2.53125 0,0.609375 -0.046875,0.78125 -0.125,0.984375 -0.21875,0.71875 -0.515625,1.875 -0.515625,2.140625 0,0.109375 0.046875,0.171875 0.125,0.171875 0.140625,0 0.21875,-0.21875 0.328125,-0.59375 C 3.65625,0.703125 3.75,0.140625 3.78125,-0.171875 c 0.03125,-0.125 0.046875,-0.25 0.09375,-0.390625 0.3125,-0.984375 0.953125,-2.46875 1.34375,-3.25 0.078125,-0.125 0.1875,-0.34375 0.1875,-0.390625 z m 0,0"
               id="path1681" />
          </symbol>
          <symbol
             style="overflow:visible"
             overflow="visible"
             id="lx-text1521-glyph1-0">
            <path
               inkscape:connector-curvature="0"
               style="stroke:none"
               d=""
               id="path1684" />
          </symbol>
          <symbol
             style="overflow:visible"
             overflow="visible"
             id="lx-text1521-glyph1-1">
            <path
               inkscape:connector-curvature="0"
               style="stroke:none"
               d="m 5.46875,-1.734375 c 0,-0.1875 -0.171875,-0.1875 -0.265625,-0.1875 h -4.1875 c -0.109375,0 -0.265625,0 -0.265625,0.1875 0,0.15625 0.171875,0.15625 0.265625,0.15625 h 4.1875 c 0.09375,0 0.265625,0 0.265625,-0.15625 z m 0,0"
               id="path1687" />
          </symbol>
        </g>
      </defs>
      <g
         id="lx-text1521-surface1">
        <g
           style="fill:#000000;fill-opacity:1"
           id="g1696">
          <use
             height="100%"
             width="100%"
             xlink:href="#lx-text1521-glyph0-1"
             x="0"
             y="0"
             id="use1694" />
        </g>
        <g
           style="fill:#000000;fill-opacity:1"
           id="g1700">
          <use
             height="100%"
             width="100%"
             xlink:href="#lx-text1521-glyph1-1"
             x="5.158"
             y="1.495"
             id="use1698" />
        </g>
      </g>
    </g>
    <g
       transform="matrix(0.352778,0,0,0.352778,56.436946,64.101466)"
       id="lx-text1525">
      <defs
         id="defs1718">
        <g
           id="g1716">
          <symbol
             style="overflow:visible"
             overflow="visible"
             id="lx-text1525-glyph0-0">
            <path
               inkscape:connector-curvature="0"
               style="stroke:none"
               d=""
               id="path1704" />
          </symbol>
          <symbol
             style="overflow:visible"
             overflow="visible"
             id="lx-text1525-glyph0-1">
            <path
               inkscape:connector-curvature="0"
               style="stroke:none"
               d="m 5.40625,-4.203125 c 0,-0.09375 -0.109375,-0.09375 -0.109375,-0.09375 -0.03125,0 -0.09375,0 -0.125,0.0625 C 4.65625,-3.28125 4.25,-2.28125 3.859375,-1.28125 3.84375,-1.578125 3.84375,-2.34375 3.453125,-3.3125 3.203125,-3.921875 2.8125,-4.40625 2.125,-4.40625 c -1.25,0 -1.953125,1.515625 -1.953125,1.828125 0,0.09375 0.09375,0.09375 0.203125,0.09375 L 0.40625,-2.53125 C 0.796875,-3.671875 1.890625,-3.6875 2,-3.6875 c 1.5,0 1.609375,1.75 1.609375,2.53125 0,0.609375 -0.046875,0.78125 -0.125,0.984375 -0.21875,0.71875 -0.515625,1.875 -0.515625,2.140625 0,0.109375 0.046875,0.171875 0.125,0.171875 0.140625,0 0.21875,-0.21875 0.328125,-0.59375 C 3.65625,0.703125 3.75,0.140625 3.78125,-0.171875 c 0.03125,-0.125 0.046875,-0.25 0.09375,-0.390625 0.3125,-0.984375 0.953125,-2.46875 1.34375,-3.25 0.078125,-0.125 0.1875,-0.34375 0.1875,-0.390625 z m 0,0"
               id="path1707" />
          </symbol>
          <symbol
             style="overflow:visible"
             overflow="visible"
             id="lx-text1525-glyph1-0">
            <path
               inkscape:connector-curvature="0"
               style="stroke:none"
               d=""
               id="path1710" />
          </symbol>
          <symbol
             style="overflow:visible"
             overflow="visible"
             id="lx-text1525-glyph1-1">
            <path
               inkscape:connector-curvature="0"
               style="stroke:none"
               d="M 4.984375,-3.796875 C 4.984375,-3.5 4.859375,-3.0625 4.53125,-2.8125 4.25,-2.59375 3.8125,-2.484375 3.328125,-2.484375 H 2.4375 l 0.4375,-1.78125 c 0.046875,-0.203125 0.0625,-0.21875 0.21875,-0.25 h 0.453125 c 0.640625,0 1.4375,0 1.4375,0.71875 z m 0.9375,3.125 c 0,-0.015625 -0.015625,-0.09375 -0.125,-0.09375 -0.09375,0 -0.109375,0.046875 -0.125,0.125 C 5.578125,-0.34375 5.3125,-0.0625 5.03125,-0.0625 c -0.1875,0 -0.328125,-0.0625 -0.328125,-0.453125 0,-0.171875 0.046875,-0.53125 0.078125,-0.71875 0.03125,-0.1875 0.03125,-0.25 0.03125,-0.328125 0,-0.078125 0,-0.3125 -0.203125,-0.515625 -0.125,-0.140625 -0.3125,-0.234375 -0.46875,-0.296875 0.828125,-0.1875 1.5625,-0.6875 1.5625,-1.3125 0,-0.59375 -0.703125,-1.078125 -1.71875,-1.078125 H 1.84375 c -0.125,0 -0.21875,0 -0.21875,0.15625 0,0.09375 0.078125,0.09375 0.21875,0.09375 0,0 0.140625,0 0.265625,0.015625 0.15625,0.015625 0.15625,0.03125 0.15625,0.109375 0,0 0,0.046875 -0.015625,0.140625 L 1.3125,-0.546875 C 1.265625,-0.3125 1.25,-0.25 0.703125,-0.25 0.578125,-0.25 0.5,-0.25 0.5,-0.109375 0.5,-0.03125 0.546875,0 0.609375,0 0.734375,0 0.90625,-0.015625 1.03125,-0.015625 L 1.5,-0.03125 1.9375,-0.015625 C 2.09375,-0.015625 2.265625,0 2.40625,0 2.453125,0 2.5625,0 2.5625,-0.140625 2.5625,-0.25 2.484375,-0.25 2.328125,-0.25 2.21875,-0.25 2.1875,-0.25 2.0625,-0.265625 1.90625,-0.28125 1.90625,-0.296875 1.90625,-0.375 c 0,0 0,-0.046875 0.03125,-0.140625 L 2.375,-2.28125 h 0.953125 c 0.59375,0 0.859375,0.296875 0.859375,0.625 0,0.09375 -0.0625,0.328125 -0.109375,0.484375 C 4,-0.84375 3.96875,-0.75 3.96875,-0.625 c 0,0.546875 0.515625,0.765625 1.03125,0.765625 0.640625,0 0.921875,-0.6875 0.921875,-0.8125 z m 0,0"
               id="path1713" />
          </symbol>
        </g>
      </defs>
      <g
         id="lx-text1525-surface1">
        <g
           style="fill:#000000;fill-opacity:1"
           id="g1722">
          <use
             height="100%"
             width="100%"
             xlink:href="#lx-text1525-glyph0-1"
             x="0"
             y="0"
             id="use1720" />
        </g>
        <g
           style="fill:#000000;fill-opacity:1"
           id="g1726">
          <use
             height="100%"
             width="100%"
             xlink:href="#lx-text1525-glyph1-1"
             x="5.158"
             y="1.495"
             id="use1724" />
        </g>
      </g>
    </g>
    <g
       transform="matrix(0.352778,0,0,0.352778,95.20623,39.385419)"
       id="lx-text1529">
      <defs
         id="defs1738">
        <g
           id="g1736">
          <symbol
             style="overflow:visible"
             overflow="visible"
             id="lx-text1529-glyph0-0">
            <path
               inkscape:connector-curvature="0"
               style="stroke:none"
               d=""
               id="path1730" />
          </symbol>
          <symbol
             style="overflow:visible"
             overflow="visible"
             id="lx-text1529-glyph0-1">
            <path
               inkscape:connector-curvature="0"
               style="stroke:none"
               d="m 5.796875,-4.53125 -0.28125,-2.25 h -5.1875 v 0.3125 H 0.5625 c 0.765625,0 0.796875,0.109375 0.796875,0.46875 v 5.21875 c 0,0.359375 -0.03125,0.46875 -0.796875,0.46875 H 0.328125 V 0 c 0.34375,-0.03125 1.125,-0.03125 1.515625,-0.03125 0.40625,0 1.3125,0 1.671875,0.03125 V -0.3125 H 3.1875 C 2.25,-0.3125 2.25,-0.4375 2.25,-0.78125 v -5.296875 c 0,-0.328125 0.015625,-0.390625 0.484375,-0.390625 h 1.03125 c 1.421875,0 1.625,0.59375 1.78125,1.9375 z m 0,0"
               id="path1733" />
          </symbol>
        </g>
      </defs>
      <g
         id="lx-text1529-surface1">
        <g
           style="fill:#000000;fill-opacity:1"
           id="g1742">
          <use
             transform="matrix(1.5924947,0,0,1.5924947,-0.19441232,4.0178687)"
             height="100%"
             width="100%"
             xlink:href="#lx-text1529-glyph0-1"
             x="0"
             y="0"
             id="use1740" />
        </g>
      </g>
    </g>
    <g
       style="fill:#3703e9;fill-opacity:1;stroke:#0c0cff;stroke-width:1.00062931;stroke-miterlimit:4;stroke-dasharray:none;stroke-opacity:1"
       transform="matrix(0.352778,0,0,0.352778,88.092624,52.278389)"
       id="lx-text1533">
      <defs
         id="defs1760">
        <g
           id="g1758">
          <symbol
             style="overflow:visible"
             overflow="visible"
             id="lx-text1533-glyph0-0">
            <path
               inkscape:connector-curvature="0"
               style="stroke:none"
               d=""
               id="path1746" />
          </symbol>
          <symbol
             style="overflow:visible"
             overflow="visible"
             id="lx-text1533-glyph0-1">
            <path
               inkscape:connector-curvature="0"
               style="stroke:none"
               d="m 6.625,-3.40625 c 0,-1.03125 -1.125,-1.9375 -2.640625,-2.0625 v -0.546875 c 0,-0.34375 0,-0.484375 0.9375,-0.484375 H 5.25 v -0.3125 c -0.359375,0.03125 -1.265625,0.03125 -1.6875,0.03125 -0.40625,0 -1.328125,0 -1.6875,-0.03125 V -6.5 h 0.328125 c 0.953125,0 0.953125,0.125 0.953125,0.484375 V -5.46875 C 1.625,-5.3125 0.5625,-4.390625 0.5625,-3.40625 c 0,1.03125 1.109375,1.90625 2.59375,2.0625 v 0.5625 c 0,0.328125 0,0.46875 -0.953125,0.46875 H 1.875 V 0 c 0.359375,-0.03125 1.28125,-0.03125 1.6875,-0.03125 0.40625,0 1.328125,0 1.6875,0.03125 V -0.3125 H 4.921875 c -0.9375,0 -0.9375,-0.125 -0.9375,-0.46875 v -0.5625 C 5.515625,-1.46875 6.625,-2.390625 6.625,-3.40625 Z M 3.15625,-1.578125 C 1.734375,-1.765625 1.5625,-2.78125 1.5625,-3.40625 c 0,-0.515625 0.09375,-1.625 1.59375,-1.828125 z M 5.625,-3.40625 C 5.625,-2.8125 5.484375,-1.75 3.984375,-1.5625 V -5.25 c 1.375,0.171875 1.640625,1.078125 1.640625,1.84375 z m 0,0"
               id="path1749" />
          </symbol>
          <symbol
             style="overflow:visible"
             overflow="visible"
             id="lx-text1533-glyph1-0">
            <path
               inkscape:connector-curvature="0"
               style="stroke:none"
               d=""
               id="path1752" />
          </symbol>
          <symbol
             style="overflow:visible"
             overflow="visible"
             id="lx-text1533-glyph1-1">
            <path
               inkscape:connector-curvature="0"
               style="stroke:none"
               d="m 2.921875,-0.3125 c 0,-0.015625 0,-0.140625 -0.09375,-0.140625 -0.03125,0 -0.046875,0 -0.09375,0.03125 C 2.5,-0.265625 2.203125,-0.125 1.921875,-0.125 1.640625,-0.125 1.0625,-0.265625 1.0625,-1.0625 c 0,-0.09375 0,-0.234375 0.0625,-0.5 h 1.3125 c 0.09375,0 0.234375,0 0.234375,-0.125 0,-0.125 -0.109375,-0.125 -0.234375,-0.125 h -1.25 C 1.390625,-2.453125 1.84375,-2.75 2.453125,-2.75 H 2.71875 c 0.125,0 0.25,0 0.25,-0.140625 C 2.96875,-3 2.875,-3 2.734375,-3 H 2.4375 c -0.921875,0 -1.96875,0.640625 -1.96875,1.703125 0,0.8125 0.625,1.359375 1.4375,1.359375 0.203125,0 0.5,-0.03125 0.875,-0.234375 C 2.90625,-0.25 2.921875,-0.265625 2.921875,-0.3125 Z m 0,0"
               id="path1755" />
          </symbol>
        </g>
      </defs>
      <g
         style="fill:#3703e9;fill-opacity:1;stroke:#0c0cff;stroke-width:1.00062931;stroke-miterlimit:4;stroke-dasharray:none;stroke-opacity:1"
         id="lx-text1533-surface1">
        <g
           style="fill:#3703e9;fill-opacity:1;stroke:#0c0cff;stroke-width:1.00062931;stroke-miterlimit:4;stroke-dasharray:none;stroke-opacity:1"
           id="g1764">
          <use
             style="fill:#3703e9;fill-opacity:1;stroke:#0c0cff;stroke-width:1.00062931;stroke-miterlimit:4;stroke-dasharray:none;stroke-opacity:1"
             height="100%"
             width="100%"
             xlink:href="#lx-text1533-glyph0-1"
             x="0"
             y="0"
             id="use1762" />
        </g>
        <g
           style="fill:#3703e9;fill-opacity:1;stroke:#0c0cff;stroke-width:1.00062931;stroke-miterlimit:4;stroke-dasharray:none;stroke-opacity:1"
           id="g1768">
          <use
             style="fill:#3703e9;fill-opacity:1;stroke:#0c0cff;stroke-width:1.00062931;stroke-miterlimit:4;stroke-dasharray:none;stroke-opacity:1"
             height="100%"
             width="100%"
             xlink:href="#lx-text1533-glyph1-1"
             x="7.1950002"
             y="1.495"
             id="use1766" />
        </g>
      </g>
    </g>
    <path
       d="m 86.149266,50.073351 a 11.237752,10.961309 0 0 1 0.676393,3.824777"
       sodipodi:open="true"
       sodipodi:end="0.0071680607"
       sodipodi:start="5.9343896"
       sodipodi:ry="10.961309"
       sodipodi:rx="11.237752"
       sodipodi:cy="53.819557"
       sodipodi:cx="75.588196"
       sodipodi:type="arc"
       id="path1935"
       style="fill:none;stroke:#0c0cff;stroke-width:0.31599998;stroke-linecap:round;stroke-miterlimit:4;stroke-dasharray:none;stroke-dashoffset:0;stroke-opacity:1" />
    <g
       id="lx-text2146"
       transform="matrix(0.352778,0,0,0.352778,70.020085,38.74776)">
      <defs
         id="defs2312">
        <g
           id="g2310">
          <symbol
             id="lx-text2146-glyph0-0"
             overflow="visible"
             style="overflow:visible">
            <path
               id="path2301"
               d="M 3.9375,0 V -7.09375 H 0.484375 V 0 Z M 3.671875,-0.40625 2.34375,-3.546875 l 1.328125,-3.125 z M 0.75,-6.609375 2.046875,-3.546875 0.75,-0.46875 Z m 0.1875,6.34375 1.25,-2.953125 1.265625,2.953125 z m 1.25,-3.609375 -1.25,-2.953125 h 2.515625 z m 0,0"
               style="stroke:none"
               inkscape:connector-curvature="0" />
          </symbol>
          <symbol
             id="lx-text2146-glyph0-1"
             overflow="visible"
             style="overflow:visible">
            <path
               id="path2304"
               d="m 1.828125,0 v -7.09375 h -0.9375 V 0 Z m 0,0"
               style="stroke:none"
               inkscape:connector-curvature="0" />
          </symbol>
          <symbol
             id="lx-text2146-glyph0-2"
             overflow="visible"
             style="overflow:visible">
            <path
               id="path2307"
               d="M 1.53125,-5.265625 H 0.671875 V 0 h 0.90625 v -3.84375 c 0.21875,-0.5 0.625,-0.75 1.21875,-0.75 0.734375,0 1.109375,0.375 1.109375,1.140625 V 0 H 4.8125 v -3.5 c 0.046875,-0.328125 0.171875,-0.609375 0.390625,-0.796875 0.21875,-0.203125 0.5,-0.296875 0.828125,-0.296875 0.40625,0 0.703125,0.09375 0.875,0.265625 0.171875,0.203125 0.25,0.484375 0.25,0.859375 V 0 H 8.0625 V -3.53125 C 8.046875,-4.75 7.453125,-5.359375 6.296875,-5.359375 c -0.375,0 -0.71875,0.078125 -0.984375,0.234375 -0.296875,0.15625 -0.515625,0.359375 -0.6875,0.609375 -0.265625,-0.5625 -0.78125,-0.84375 -1.515625,-0.84375 -0.65625,0 -1.171875,0.21875 -1.5625,0.671875 z m 0,0"
               style="stroke:none"
               inkscape:connector-curvature="0" />
          </symbol>
        </g>
      </defs>
      <g
         id="lx-text2146-surface1">
        <g
           id="g2318"
           style="fill:#000000;fill-opacity:1">
          <use
             id="use2314"
             y="0"
             x="0"
             xlink:href="#lx-text2146-glyph0-1"
             width="100%"
             height="100%" />
          <use
             id="use2316"
             y="0"
             x="2.7098269"
             xlink:href="#lx-text2146-glyph0-2"
             width="100%"
             height="100%" />
        </g>
      </g>
    </g>
    <g
       id="lx-text2150"
       transform="matrix(0.352778,0,0,0.352778,126.81101,57.930053)">
      <defs
         id="defs2333">
        <g
           id="g2331">
          <symbol
             id="lx-text2150-glyph0-0"
             overflow="visible"
             style="overflow:visible">
            <path
               id="path2322"
               d="M 3.9375,0 V -7.09375 H 0.484375 V 0 Z M 3.671875,-0.40625 2.34375,-3.546875 l 1.328125,-3.125 z M 0.75,-6.609375 2.046875,-3.546875 0.75,-0.46875 Z m 0.1875,6.34375 1.25,-2.953125 1.265625,2.953125 z m 1.25,-3.609375 -1.25,-2.953125 h 2.515625 z m 0,0"
               style="stroke:none"
               inkscape:connector-curvature="0" />
          </symbol>
          <symbol
             id="lx-text2150-glyph0-1"
             overflow="visible"
             style="overflow:visible">
            <path
               id="path2325"
               d="M 3.421875,-2.859375 4.953125,0 H 5.96875 v -0.0625 l -1.671875,-3 c 0.421875,-0.171875 0.765625,-0.40625 1,-0.734375 C 5.53125,-4.125 5.65625,-4.515625 5.65625,-4.953125 5.65625,-5.65625 5.4375,-6.171875 5.015625,-6.546875 4.578125,-6.90625 3.96875,-7.09375 3.15625,-7.09375 H 0.8125 V 0 H 1.75 V -2.859375 Z M 1.75,-3.625 v -2.6875 h 1.4375 c 0.5,0 0.875,0.109375 1.140625,0.34375 0.25,0.234375 0.390625,0.578125 0.390625,1.015625 0,0.40625 -0.140625,0.71875 -0.421875,0.96875 C 4.03125,-3.75 3.65625,-3.625 3.1875,-3.625 Z m 0,0"
               style="stroke:none"
               inkscape:connector-curvature="0" />
          </symbol>
          <symbol
             id="lx-text2150-glyph0-2"
             overflow="visible"
             style="overflow:visible">
            <path
               id="path2328"
               d="m 2.859375,0.09375 c 0.890625,0 1.546875,-0.34375 2,-1.015625 l -0.5625,-0.421875 c -0.15625,0.203125 -0.359375,0.375 -0.578125,0.515625 -0.21875,0.125 -0.484375,0.1875 -0.796875,0.1875 C 2.46875,-0.640625 2.09375,-0.796875 1.8125,-1.125 1.515625,-1.4375 1.375,-1.859375 1.359375,-2.375 h 3.5625 V -2.75 c 0,-0.84375 -0.1875,-1.484375 -0.5625,-1.9375 C 3.96875,-5.140625 3.4375,-5.359375 2.75,-5.359375 c -0.40625,0 -0.796875,0.109375 -1.15625,0.34375 -0.359375,0.234375 -0.640625,0.546875 -0.84375,0.96875 -0.1875,0.40625 -0.296875,0.875 -0.296875,1.390625 v 0.171875 c 0,0.78125 0.21875,1.40625 0.671875,1.875 0.453125,0.46875 1.03125,0.703125 1.734375,0.703125 z M 2.75,-4.625 c 0.375,0 0.6875,0.125 0.90625,0.375 C 3.875,-4 4,-3.640625 4.015625,-3.1875 v 0.078125 H 1.375 C 1.4375,-3.59375 1.59375,-3.96875 1.84375,-4.234375 2.09375,-4.5 2.390625,-4.625 2.75,-4.625 Z m 0,0"
               style="stroke:none"
               inkscape:connector-curvature="0" />
          </symbol>
        </g>
      </defs>
      <g
         id="lx-text2150-surface1">
        <g
           id="g2339"
           style="fill:#000000;fill-opacity:1">
          <use
             id="use2335"
             y="0"
             x="0"
             xlink:href="#lx-text2150-glyph0-1"
             width="100%"
             height="100%" />
          <use
             id="use2337"
             y="0"
             x="6.1339731"
             xlink:href="#lx-text2150-glyph0-2"
             width="100%"
             height="100%" />
        </g>
      </g>
    </g>
  </g>
  <g
     inkscape:label="Text"
     id="layer3"
     inkscape:groupmode="layer" />
</svg>
